# xmcd
#
# Track frame offsets:
# 150
# 12453
# 27939
# 37166
# 51581
# 64045
# 81601
# 96196
# 116161
# 130966
# 141115
# 151179
# 165653
# 179647
# 218371
#
# Disc length: 3551 seconds
#
# Revision: 1
# Processed by: cddbd v1.5.2PL0 Copyright (c) Steve Scherf et al.
# Submitted via: CedeCatalogueitor 2.6.0.6 http://personales.ya.com/cdcatalogueitor
#
DISCID=da0ddd0f
DTITLE=G.A.S. Drummers - Standards Down
DYEAR=1900
DGENRE=
TTITLE0=Late Night Conversations
TTITLE1=Back To Decadence
TTITLE2=Art Is Futile
TTITLE3=Kids In My Town
TTITLE4=July Graves
TTITLE5=Sons Of Our Time
TTITLE6=All That's Left Behind
TTITLE7=Standards Down
TTITLE8=Weak Ulysses
TTITLE9=I Risk My Life In Every Chord
TTITLE10=The Great Seal
TTITLE11=The Death Of Emotions
TTITLE12=Urgent Statement
TTITLE13=Corporate Rock Anthems
TTITLE14=
EXTD=
EXTT0=
EXTT1=
EXTT2=
EXTT3=
EXTT4=
EXTT5=
EXTT6=
EXTT7=
EXTT8=
EXTT9=
EXTT10=
EXTT11=
EXTT12=
EXTT13=
EXTT14=
PLAYORDER=
